<svg width="16" height="16" viewBox="0 0 16 16" fill="none" xmlns="http://www.w3.org/2000/svg">
<path fill-rule="evenodd" clip-rule="evenodd" d="M15.6461 7.95657C15.6461 10.0668 14.8219 12.0906 13.3548 13.5827C11.8877 15.0749 9.89785 15.9131 7.82305 15.9131C5.74825 15.9131 3.75842 15.0749 2.29132 13.5827C0.824212 12.0906 0 10.0668 0 7.95657C0 5.84636 0.824212 3.82257 2.29132 2.33043C3.75842 0.838279 5.74825 0 7.82305 0C9.89785 0 11.8877 0.838279 13.3548 2.33043C14.8219 3.82257 15.6461 5.84636 15.6461 7.95657ZM11.7639 4.94302C11.6941 4.87222 11.6109 4.81648 11.5194 4.77913C11.4279 4.74177 11.3299 4.72358 11.2313 4.72562C11.1327 4.72766 11.0355 4.7499 10.9456 4.79102C10.8556 4.83213 10.7748 4.89127 10.7078 4.9649L7.31162 9.36588L5.26491 7.28325C5.12588 7.15148 4.942 7.07975 4.75199 7.08316C4.56199 7.08657 4.3807 7.16486 4.24633 7.30152C4.11196 7.43819 4.03499 7.62257 4.03163 7.81582C4.02828 8.00906 4.09881 8.19609 4.22836 8.33749L6.81583 10.9701C6.88554 11.0409 6.96854 11.0966 7.0599 11.1341C7.15125 11.1715 7.24908 11.1898 7.34755 11.188C7.44602 11.1861 7.54312 11.1641 7.63304 11.1233C7.72297 11.0824 7.80389 11.0236 7.87097 10.9502L11.7747 5.98732C11.9078 5.84659 11.9813 5.65839 11.9794 5.46314C11.9776 5.26789 11.9006 5.08115 11.7649 4.94302H11.7639Z" fill="white"/>
</svg>
